<svg width="2157" height="2513" viewBox="0 0 2157 2513" fill="none" xmlns="http://www.w3.org/2000/svg">
<path fill-rule="evenodd" clip-rule="evenodd" d="M1390.5 1432.8C1367.17 1367.35 1357.17 1310.67 1366.34 1269.39C1375.51 1228.12 1403.87 1202.27 1444.29 1193.52C1484.73 1184.77 1537.25 1193.1 1573.1 1197.29C1608.95 1201.44 1628.13 1201.44 1648.56 1186.01C1668.98 1170.59 1690.66 1139.75 1703.15 1107.23C1715.67 1074.71 1719 1040.53 1710.25 1022.19C1701.49 1003.85 1680.66 1001.34 1652.3 998.008C1623.96 994.68 1588.11 990.501 1558.92 963.828C1529.75 937.148 1507.25 887.957 1480.97 854.186C1454.7 820.418 1424.7 802.081 1409.69 789.171C1394.68 776.236 1394.68 768.732 1403.85 747.477C1413.02 726.21 1431.38 691.194 1448.05 668.28C1464.73 645.345 1479.72 634.492 1481.8 630.336C1483.9 626.154 1473.04 628.67 1450.95 638.673C1428.86 648.673 1395.51 666.18 1374.24 677.864C1352.99 689.532 1343.82 695.354 1339.23 691.194C1334.65 687.016 1334.65 672.857 1335.9 657.01C1337.15 641.169 1339.66 623.66 1336.73 616.154C1333.82 608.65 1325.48 611.162 1279.61 654.93C1233.77 698.698 1150.41 783.74 1087.45 854.624C1024.51 925.485 981.986 982.164 955.726 1047.2C929.466 1112.22 919.445 1185.6 914.436 1225.63C909.442 1265.63 909.442 1272.3 914.02 1281.06C918.612 1289.81 927.801 1300.66 955.312 1325.26C982.82 1349.84 1028.69 1388.2 1072.87 1440.73C1117.05 1493.25 1159.57 1559.95 1183.76 1634.57C1207.94 1709.19 1213.76 1791.72 1202.91 1869.01C1192.06 1946.32 1164.53 2018.39 1136.06 2077.7C1107.6 2137.03 1078.22 2183.64 1061.13 2219.71C1044.06 2255.8 1039.29 2281.38 1047.31 2307.51C1055.34 2333.64 1076.2 2360.34 1087.45 2374.08C1098.7 2387.84 1100.38 2388.67 1091.63 2382.42C1082.88 2376.16 1063.68 2362.83 1045.76 2342.39C1027.83 2321.97 1011.16 2294.46 1017.84 2254.44C1024.51 2214.44 1054.51 2161.89 1083.99 2108.67C1113.48 2055.45 1142.41 2001.53 1157.01 1943.58C1171.6 1885.63 1171.83 1823.68 1166.53 1763.08C1161.24 1702.5 1150.39 1643.33 1123.29 1584.13C1096.2 1524.93 1052.85 1465.74 1004.07 1413.21C955.312 1360.69 901.104 1314.82 857.337 1282.32C813.568 1249.81 780.217 1230.61 762.296 1221.45C744.372 1212.28 741.857 1213.11 744.35 1224.79C746.868 1236.46 754.372 1258.95 758.117 1271.89C761.877 1284.8 761.877 1288.15 749.78 1286.9C737.696 1285.63 713.534 1279.81 700.186 1279.39C686.854 1278.98 684.344 1283.97 693.514 1295.65C702.68 1307.32 723.537 1325.66 730.192 1336.93C736.864 1348.18 729.36 1352.33 699.336 1383.19C669.329 1414.05 616.809 1471.56 589.717 1506.16C562.624 1540.76 560.941 1552.44 575.121 1569.95C589.298 1587.46 619.304 1610.79 644.736 1627.46C670.162 1644.14 691.016 1654.16 714.764 1657.92C738.529 1661.66 765.226 1659.15 785.641 1672.91C806.081 1686.68 820.244 1716.68 818.997 1735.04C817.745 1753.38 801.069 1760.04 771.465 1768.79C741.874 1777.54 699.353 1788.39 659.745 1821.31C620.156 1854.25 583.458 1909.29 559.276 1961.39C535.112 2013.5 523.429 2062.67 513.845 2087.27C504.261 2111.87 496.752 2111.87 462.986 2081.84C429.218 2051.84 369.189 1991.81 321.242 1927.6C22.7103 1527.79 271.766 1111.11 686.838 936.734C800.185 889.164 -434.166 1110.67 165.758 1934.69C231.626 2025.16 319.164 2096.04 381.685 2138.15C444.232 2180.25 481.742 2193.58 500.912 2205.66C520.104 2217.76 520.936 2228.59 530.521 2254.44C540.105 2280.29 558.446 2321.14 614.294 2366.99C670.162 2412.86 763.541 2463.71 853.993 2489.98C944.458 2516.24 1032.02 2517.9 1122.05 2502.89C1212.1 2487.88 1304.65 2456.21 1406.78 2416.6C1508.91 2376.99 1620.63 2329.48 1708.58 2302.37C1796.53 2275.27 1860.74 2268.62 1935.76 2266.11C2010.8 2263.61 2096.7 2265.29 2133.79 2263.19C2170.89 2261.11 2159.22 2255.29 2119.19 2249.45C2079.17 2243.61 2010.8 2237.77 1917.01 2242.75C1823.21 2247.77 1704.01 2263.61 1607.7 2282.37C1511.41 2301.14 1438.05 2322.81 1383.43 2325.72C1328.82 2328.65 1292.96 2312.8 1280.86 2279.45C1268.78 2246.1 1280.46 2195.24 1316.31 2118.12C1352.16 2041 1412.18 1937.62 1444.71 1854.66C1477.22 1771.72 1482.22 1709.18 1466.37 1640.81C1450.55 1572.44 1413.85 1498.26 1390.5 1432.8Z" fill="#fff"/>
<path fill-rule="evenodd" clip-rule="evenodd" d="M1463.72 192.272C1965.52 322.594 2016.81 754.114 2030.81 1233.71C2036.8 1438.49 2066.3 1527.88 2069.62 1517.46C2072.95 1507.05 2050.15 1396.79 2045.76 1279.03C2041.4 1161.27 2055.48 1035.98 2057.14 909.677C2060.64 643.758 1969.72 265.705 1727.17 120.18C1135.73 -234.658 530.084 251.938 685.024 865.097C704.743 943.105 641.16 -21.3724 1463.72 192.272Z" fill="#08d"/>
</svg>
