<svg width="434" height="392" viewBox="0 0 434 392" fill="none" xmlns="http://www.w3.org/2000/svg">
<path fill-rule="evenodd" clip-rule="evenodd" d="M231.269 6.40005L348.587 123.713V75.1467C348.587 70.4267 352.48 66.5601 357.204 66.5601H376.517C381.241 66.5601 385.096 70.4267 385.096 75.1467V139.057C385.096 143.781 381.241 147.637 376.517 147.637H372.511L427.616 202.705C433.549 208.676 435.251 217.18 432.037 224.965C428.788 232.752 421.605 237.589 413.179 237.589H380.371C379.352 231.732 376.555 226.403 372.284 222.131L237.279 87.1201C226.016 75.8668 207.648 75.8668 196.347 87.1201L61.3787 222.131C57.0707 226.403 54.312 231.732 53.2921 237.589H20.484C12.056 237.589 4.83739 232.752 1.62539 224.965C-1.62528 217.18 0.0760427 208.676 6.04671 202.705L202.393 6.40005C210.331 -1.57329 223.295 -1.57329 231.269 6.40005" fill="#08d"/>
<path fill-rule="evenodd" clip-rule="evenodd" d="M178.62 194.087C170.457 192.84 150.992 192.992 146.343 182.144C140.712 168.916 154.317 161.131 162.821 166.724C162.217 156.556 175.748 148.695 184.365 160.185C191.471 169.596 181.605 186.378 178.62 194.087Z" fill="#fff"/>
<path fill-rule="evenodd" clip-rule="evenodd" d="M93.6187 391.719C92.6361 389.224 92.8641 386.315 94.1481 384.009C96.6041 379.661 100.724 379.473 104.277 382.044C103.559 380.872 102.652 379.927 101.593 379.247C102.691 378.34 103.672 377.432 104.58 376.412C123.628 355.661 103.899 313.633 102.765 281.356C106.393 297.269 111.383 312.765 117.619 327.58C104.617 284.191 91.0107 211.209 150.615 210.415C148.648 213.816 147.741 218.315 148.497 221.867C168.717 220.317 164.56 239.291 180.925 242.957C181.568 250.591 178.733 258.037 173.443 262.761C166.715 268.733 129.789 265.217 154.431 286.119C140.333 280.676 128.844 268.884 122.571 253.54C136.365 310.044 205.115 285.288 218.116 335.367C222.047 350.56 219.665 363.259 210.143 373.841C224.315 370.213 232.1 342.548 220.044 323.649C241.588 325.161 244.044 391.719 209.235 391.719H129.713C129.676 385.823 132.473 380.343 137.084 377.469C142.187 374.333 148.423 375.013 152.881 379.209C152.089 376.639 150.349 374.56 148.12 373.501C149.519 367.152 148.8 360.424 146.003 354.604C143.017 348.329 137.839 343.719 131.755 341.867C133.568 357.476 127.445 391.719 112.857 391.719H93.6187" fill="#fff"/>
<path fill-rule="evenodd" clip-rule="evenodd" d="M339.78 391.719C341.14 388.544 340.875 384.879 338.985 381.968C335.471 376.488 329.537 376.185 324.397 379.436C325.455 377.999 326.777 376.789 328.289 375.92C326.703 374.787 325.265 373.615 323.981 372.368C296.541 346.063 324.964 292.847 326.589 251.952C321.335 272.135 314.192 291.713 305.197 310.496C326.476 247.984 334.375 186.604 296.881 172.62C299.829 183.883 291.288 196.128 275.339 193.823C280.327 188.683 279.873 166.799 264.037 172.733C251.981 177.269 236.183 182.521 216 178.477C212.825 187.057 214.564 196.355 219.969 203.159C228.169 213.439 281.424 221.753 252.207 257.999C272.467 251.083 289.059 236.191 298.092 216.727C281.801 275.423 212.333 264.879 177.525 294.169C191.281 298.364 204.321 303.732 216.037 316.468C242.457 316.052 252.851 367.152 229.492 391.719H287.812C287.849 384.273 283.805 377.319 277.191 373.691C269.859 369.721 260.864 370.591 254.437 375.883C255.609 372.595 258.104 369.987 261.316 368.627C259.275 360.613 260.333 352.072 264.34 344.74C268.648 336.765 276.093 330.944 284.864 328.601C282.217 348.368 291.024 391.719 312.037 391.719H339.78" fill="#fff"/>
</svg>
